# Blender v2.93.0 OBJ File: 'Newbasket.blend'
# www.blender.org
o BANCO_Cube
v 2.455695 -0.038979 -15.704277
v 2.455695 0.763728 -15.704277
v 2.455695 -0.038979 -16.741833
v 2.455695 0.763728 -16.741833
v 2.737738 -0.038979 -15.704277
v 2.737738 0.763728 -15.704277
v 2.737738 -0.038979 -16.741833
v 2.737738 0.763728 -16.741833
v 2.455695 0.528071 -15.704277
v 2.455695 0.528071 -16.741833
v 2.737738 0.528071 -16.741833
v 2.737738 0.528071 -15.704277
v 5.036727 0.763728 -16.741833
v 5.036727 0.763728 -15.704277
v 5.036727 0.528071 -16.741833
v 5.036727 0.528071 -15.704277
v 4.666954 0.763728 -15.704277
v 4.666954 0.763728 -16.741833
v 4.666954 0.528071 -16.741833
v 4.666954 0.528071 -15.704277
v 5.036727 -0.029670 -16.741833
v 5.036727 -0.029670 -15.704277
v 4.666954 -0.029670 -16.741833
v 4.666954 -0.029670 -15.704277
vt 0.630333 -0.004000
vt 0.556939 0.246000
vt 0.556939 -0.004000
vt 0.630333 0.246000
vt 0.556939 0.496000
vt 0.630333 0.746000
vt 0.630333 0.496000
vt 0.630333 0.496000
vt 0.630333 0.746000
vt 0.556939 0.996000
vt 0.556939 0.746000
vt 0.380333 0.496000
vt 0.130333 0.746000
vt 0.130333 0.496000
vt 0.880333 0.496000
vt 0.630333 0.496000
vt 0.380333 0.996000
vt 0.380333 0.746000
vt 0.380333 0.246000
vt 0.380333 -0.004000
vt 0.556939 0.746000
vt 0.556939 0.496000
vt 0.556939 0.496000
vt 0.556939 0.496000
vt 0.556939 0.746000
vt 0.630333 0.746000
vt 0.556939 0.746000
vt 0.556939 0.746000
vt 0.556939 0.496000
vt 0.630333 0.996000
vt 0.880333 0.746000
vn -1.0000 0.0000 0.0000
vn 0.0000 0.0000 -1.0000
vn 0.0000 1.0000 0.0000
vn 0.0000 0.0000 1.0000
vn 0.0000 -1.0000 0.0000
vn 1.0000 0.0000 0.0000
s off
f 2/1/1 10/2/1 9/3/1
f 4/4/2 11/5/2 10/2/2
f 17/6/3 13/7/3 18/8/3
f 6/9/4 9/10/4 12/11/4
f 7/12/5 1/13/5 3/14/5
f 4/15/3 6/9/3 8/16/3
f 12/11/4 1/17/4 5/18/4
f 11/5/6 5/18/6 7/12/6
f 10/2/2 7/12/2 3/19/2
f 9/3/1 3/19/1 1/20/1
f 13/7/6 16/21/6 15/22/6
f 15/22/2 23/23/2 19/24/2
f 20/25/4 14/26/4 17/6/4
f 18/8/2 15/22/2 19/24/2
f 8/16/2 19/24/2 11/5/2
f 12/11/4 17/6/4 6/9/4
f 11/5/5 20/25/5 12/11/5
f 6/9/3 18/8/3 8/16/3
f 23/23/5 22/27/5 24/28/5
f 20/25/4 22/27/4 16/21/4
f 16/21/6 21/29/6 15/22/6
f 19/24/1 24/28/1 20/25/1
f 2/1/1 4/4/1 10/2/1
f 4/4/2 8/16/2 11/5/2
f 17/6/3 14/26/3 13/7/3
f 6/9/4 2/30/4 9/10/4
f 7/12/5 5/18/5 1/13/5
f 4/15/3 2/31/3 6/9/3
f 12/11/4 9/10/4 1/17/4
f 11/5/6 12/11/6 5/18/6
f 10/2/2 11/5/2 7/12/2
f 9/3/1 10/2/1 3/19/1
f 13/7/6 14/26/6 16/21/6
f 15/22/2 21/29/2 23/23/2
f 20/25/4 16/21/4 14/26/4
f 18/8/2 13/7/2 15/22/2
f 8/16/2 18/8/2 19/24/2
f 12/11/4 20/25/4 17/6/4
f 11/5/5 19/24/5 20/25/5
f 6/9/3 17/6/3 18/8/3
f 23/23/5 21/29/5 22/27/5
f 20/25/4 24/28/4 22/27/4
f 16/21/6 22/27/6 21/29/6
f 19/24/1 23/23/1 24/28/1
