# Blender v2.93.0 OBJ File: 'basket.blend'
# www.blender.org
o Cesto_Wall_Cesto_Cylinder.001
v 0.551438 4.765079 -8.457293
v 0.709964 3.180584 -8.457293
v 0.551439 3.180584 -8.457293
v 0.709963 4.765079 -8.457293
v 0.709964 3.180584 -6.457292
v 0.709963 4.765079 -6.457292
v 0.551439 3.180584 -6.457292
v 0.551438 4.765079 -6.457292
vt 0.000477 0.999841
vt 0.442237 0.955644
vt 0.442237 0.999841
vt 0.997424 0.941371
vt 0.295834 0.385538
vt 0.997424 0.385538
vt 0.000476 0.999841
vt 0.442237 0.955644
vt 0.442237 0.999841
vt 0.283767 0.946012
vt 0.004965 0.725131
vt 0.283767 0.725131
vt 0.999841 0.955644
vt 0.999841 0.999841
vt 0.999842 0.955644
vt 0.442237 0.999841
vt 0.442237 0.955644
vt 0.000477 0.955644
vt 0.295834 0.941371
vt 0.000476 0.955644
vt 0.004965 0.946012
vt 0.999841 0.999841
vn 0.0000 0.0000 -1.0000
vn 1.0000 0.0000 0.0000
vn 0.0000 0.0000 1.0000
vn -1.0000 -0.0000 -0.0000
vn 0.0000 -1.0000 -0.0000
vn 0.0000 1.0000 0.0000
s 1
f 1/1/1 2/2/1 3/3/1
f 4/4/2 5/5/2 2/6/2
f 6/7/3 7/8/3 5/9/3
f 8/10/4 3/11/4 7/12/4
f 5/9/5 3/13/5 2/14/5
f 4/15/6 8/16/6 6/17/6
f 1/1/1 4/18/1 2/2/1
f 4/4/2 6/19/2 5/5/2
f 6/7/3 8/20/3 7/8/3
f 8/10/4 1/21/4 3/11/4
f 5/9/5 7/8/5 3/13/5
f 4/15/6 1/22/6 8/16/6
