# Blender v2.93.0 OBJ File: ''
# www.blender.org
mtllib skybox.mtl
o Cube_Cube.001
v -53.602135 -64.564346 -73.860893
v -53.602135 51.673386 42.376842
v -53.602135 -64.564346 42.376835
v 62.635597 -64.564346 -73.860893
v -53.602135 51.673389 -73.860893
v 62.635597 -64.564346 42.376835
v 62.635597 51.673389 -73.860893
v 62.635597 51.673386 42.376842
vt 0.250000 0.625000
vt 0.000000 0.375000
vt 0.000000 0.625000
vt 0.500000 0.625000
vt 0.250000 0.375000
vt 0.750000 0.625000
vt 0.500000 0.375000
vt 1.000000 0.625000
vt 0.750000 0.375000
vt 0.750000 0.875000
vt 0.500000 0.875000
vt 0.500000 0.125000
vt 1.000000 0.375000
vt 0.750000 0.125000
vn 1.0000 -0.0000 0.0000
vn 0.0000 0.0000 1.0000
vn -1.0000 -0.0000 0.0000
vn 0.0000 0.0000 -1.0000
vn 0.0000 1.0000 0.0000
vn 0.0000 -1.0000 -0.0000
usemtl Default_OBJ
s 1
f 1/1/1 2/2/1 3/3/1
f 4/4/2 5/5/2 1/1/2
f 6/6/3 7/7/3 4/4/3
f 3/8/4 8/9/4 6/6/4
f 3/10/5 4/4/5 1/11/5
f 8/9/6 5/12/6 7/7/6
f 1/1/1 5/5/1 2/2/1
f 4/4/2 7/7/2 5/5/2
f 6/6/3 8/9/3 7/7/3
f 3/8/4 2/13/4 8/9/4
f 3/10/5 6/6/5 4/4/5
f 8/9/6 2/14/6 5/12/6
